<?xml version="1.0" encoding="UTF-8"?>
<svg id="Camada_2" xmlns="http://www.w3.org/2000/svg" version="1.1" viewBox="0 0 734.5 269.7">
  <!-- Generator: Adobe Illustrator 30.1.0, SVG Export Plug-In . SVG Version: 2.1.1 Build 89)  -->
  <defs>
    <style>
      .st0 {
        fill: #fff;
      }
    </style>
  </defs>
  <g id="Camada_2-2">
    <g id="logo-horizontal-cor">
      <g>
        <g>
          <path class="st0" d="M9.7,210.4H0v-54.3h70.3v8.4H9.7v17h59.1v7.8H9.7v21.2Z"/>
          <path class="st0" d="M123.6,211.3c-9.8,0-17.9-1-24.2-3s-11-5.1-14.1-9.2c-3.1-4.1-4.6-9.4-4.6-15.9s1.5-11.9,4.6-16,7.7-7.2,14.1-9.2,14.4-3,24.2-3,17.8,1,24.1,3c6.3,2,11,5.1,14.1,9.2,3.1,4.1,4.6,9.4,4.6,16s-1.5,11.8-4.6,15.9-7.8,7.2-14.1,9.2c-6.3,2-14.4,3-24.1,3h0ZM123.6,202.9c6.2,0,11.3-.4,15.6-1.2s7.6-2,10.2-3.6,4.4-3.7,5.5-6.1,1.7-5.4,1.7-8.8-.6-6.4-1.7-8.8-3-4.5-5.5-6.1c-2.6-1.6-5.9-2.8-10.2-3.6s-9.4-1.2-15.6-1.2-14.8.7-19.6,2.1c-4.8,1.4-8.3,3.5-10.4,6.4-2.1,2.9-3.2,6.6-3.2,11.2s1.1,8.3,3.2,11.2,5.6,5,10.4,6.4c4.8,1.4,11.4,2.1,19.6,2.1h0Z"/>
          <path class="st0" d="M253.8,202v8.4h-75.8v-7.8l46.6-29.9c1.2-.6,2.6-1.3,4.1-2,1.5-.7,3.1-1.4,4.6-2s3.1-1.2,4.5-1.8c1.5-.6,2.8-1.1,3.9-1.6l-18.6.6h-43.7v-8.4h74.1v7.9l-43.4,28.6c-1.4.7-3,1.5-4.7,2.3s-3.4,1.5-5.2,2.3-3.5,1.5-5.2,2.1-3.2,1.3-4.7,1.9l19.3-.6h44.1Z"/>
          <path class="st0" d="M300.5,210.4v-54.3h52.7c3.4,0,6.3.3,8.9,1,2.6.7,4.8,1.7,6.6,3.1s3.1,3.2,4.1,5.4,1.4,4.9,1.4,8.1-.8,7.8-2.5,10.6-4,4.8-7.1,6c-3.1,1.2-6.9,1.9-11.4,1.9h-42.9v18.2h-9.7,0ZM352.4,164.4h-42.1v19.4h42.1c4,0,7-.7,8.9-2.2,1.9-1.5,2.8-3.9,2.8-7.4s-.9-6-2.8-7.5c-1.9-1.5-4.9-2.2-8.9-2.2h0Z"/>
          <path class="st0" d="M396.1,202h59.4v8.4h-69.1v-54.3h9.7v46h0Z"/>
          <path class="st0" d="M511.1,156.1v1.8l-35.9,52.6h-11.8l37.8-54.3h9.8ZM536.8,198h-57.6v-7h57.6v7ZM540.2,210.4l-35.9-52.6v-1.8h9.9l37.8,54.3h-11.8,0Z"/>
          <path class="st0" d="M651,196.4s-19,14-32.3,14h-57.6v-7.8l46.6-29.9c1.2-.6,2.6-1.3,4.1-2,1.5-.7,3.1-1.4,4.6-2s3.1-1.2,4.5-1.8c1.5-.6,2.8-1.1,3.9-1.6l-18.6.6h-43.7v-8.4h74.1v7.9l-43.4,28.6c-1.4.7-3,1.5-4.7,2.3s-3.4,1.5-5.2,2.3c-1.8.8-3.5,1.5-5.2,2.1-1.7.7-3.2,1.3-4.7,1.9l19.3-.6h28.3c12.1,0,29.9-5.6,29.9-5.6h0Z"/>
          <g>
            <path class="st0" d="M654.4,198.3l-8.4,12.1h11.8l10.4-15.2s-11.2-.5-13.8,3.2h0Z"/>
            <path class="st0" d="M696.7,156.1h-12.8l-26.4,37.9c2.5-1.1,6.5-2.5,12.9-3.6,9-1.6,38.5-.3,40.2,2.1,4.4,6.4,12.2,17.9,12.2,17.9h11.8l-37.8-54.3h0ZM673.5,187.3l16.7-24.5,14,20.5c-9.2-.3-21.8,1-30.7,4h0Z"/>
          </g>
        </g>
        <g>
          <path class="st0" d="M263.2,269.3h-3.7v-20.6h3.7v8.3h20.9v-8.3h3.7v20.6h-3.7v-9.1h-20.9v9.1h0Z"/>
          <path class="st0" d="M323,269.7c-3.7,0-6.8-.4-9.2-1.1-2.4-.8-4.2-1.9-5.3-3.5s-1.7-3.6-1.7-6,.6-4.5,1.7-6.1c1.2-1.6,2.9-2.7,5.3-3.5,2.4-.8,5.5-1.1,9.2-1.1s6.8.4,9.2,1.1c2.4.8,4.2,1.9,5.4,3.5,1.2,1.6,1.8,3.6,1.8,6.1s-.6,4.5-1.8,6-3,2.7-5.4,3.5c-2.4.8-5.5,1.1-9.2,1.1ZM323,266.5c2.3,0,4.3-.1,5.9-.4,1.6-.3,2.9-.7,3.9-1.4s1.7-1.4,2.1-2.3c.4-.9.6-2,.6-3.3s-.2-2.4-.6-3.4-1.1-1.7-2.1-2.3-2.2-1.1-3.9-1.4-3.6-.4-5.9-.4-5.6.3-7.4.8c-1.8.5-3.1,1.3-3.9,2.4-.8,1.1-1.2,2.5-1.2,4.3s.4,3.1,1.2,4.2,2.1,1.9,3.9,2.4c1.8.5,4.3.8,7.4.8h0Z"/>
          <path class="st0" d="M368.5,251.8h-12.4v-3.2h28.5v3.2h-12.4v17.4h-3.7v-17.4h0Z"/>
          <path class="st0" d="M429.6,269.3h-26.7v-20.6h26.7v3h-23v5.9h22.5v2.5h-22.5v6.3h23v3h0Z"/>
          <path class="st0" d="M452.5,266.1h22.5v3.2h-26.2v-20.6h3.7v17.5Z"/>
        </g>
        <g>
          <g>
            <g>
              <path class="st0" d="M354.8,112h5.7v-18.4c0-11.9-9.7-21.6-21.6-21.6h-33.1v5.7h33.1c8.8,0,15.9,7.1,15.9,15.9v18.4h0Z"/>
              <rect class="st0" x="315.2" y="91.1" width="42" height="5.7"/>
              <path class="st0" d="M354.8,112h5.7v-18.4c0-11.9-9.7-21.6-21.6-21.6h-33.1v5.7h33.1c8.8,0,15.9,7.1,15.9,15.9v18.4h0Z"/>
              <rect class="st0" x="315.2" y="91.1" width="42" height="5.7"/>
            </g>
            <path class="st0" d="M380.4,112h-5.7v-18.4c0-11.9,9.7-21.6,21.6-21.6h20.1c4.1,0,7.9,2,10.2,5.4,2.3,3.4,2.8,7.7,1.2,11.5-1.9,4.7-6.4,7.7-11.4,7.7h-36v15.3h0ZM380.6,91.1h35.8c2.7,0,5.1-1.6,6.2-4.2.8-2.1.6-4.3-.7-6.2s-3.3-2.9-5.5-2.9h-20.1c-7.9,0-14.5,5.8-15.7,13.3h0Z"/>
            <g>
              <path class="st0" d="M379.7,17.8h-5.7v18.4c0,11.9,9.7,21.6,21.6,21.6h33.1v-5.7h-33.1c-8.8,0-15.9-7.1-15.9-15.9v-18.4h0Z"/>
              <rect class="st0" x="377.3" y="33.1" width="42" height="5.7"/>
              <path class="st0" d="M379.7,17.8h-5.7v18.4c0,11.9,9.7,21.6,21.6,21.6h33.1v-5.7h-33.1c-8.8,0-15.9-7.1-15.9-15.9v-18.4h0Z"/>
              <rect class="st0" x="377.3" y="33.1" width="42" height="5.7"/>
            </g>
            <path class="st0" d="M354.2,17.8h5.7v18.4c0,11.9-9.7,21.6-21.6,21.6h-20.1c-4.1,0-7.9-2-10.2-5.4-2.3-3.4-2.8-7.7-1.2-11.5,1.9-4.7,6.4-7.7,11.4-7.7h36v-15.3h0ZM354,38.8h-35.8c-2.7,0-5.1,1.6-6.2,4.2-.8,2.1-.6,4.3.7,6.2,1.3,1.9,3.3,2.9,5.5,2.9h20.1c7.9,0,14.5-5.8,15.7-13.3Z"/>
          </g>
          <g>
            <polygon class="st0" points="441.1 60 443.1 63.6 446.7 65.6 443.1 67.6 441.1 71.2 439.1 67.6 435.5 65.6 439.1 63.6 441.1 60"/>
            <polygon class="st0" points="293.4 60 295.4 63.6 299 65.6 295.4 67.6 293.4 71.2 291.5 67.6 287.9 65.6 291.5 63.6 293.4 60"/>
            <polygon class="st0" points="372.8 124.3 369.2 126.2 367.3 129.9 365.3 126.2 361.7 124.3 365.3 122.3 367.3 118.7 369.2 122.3 372.8 124.3"/>
            <polygon class="st0" points="372.8 5.6 369.2 7.6 367.3 11.2 365.3 7.6 361.7 5.6 365.3 3.6 367.3 0 369.2 3.6 372.8 5.6"/>
          </g>
        </g>
      </g>
    </g>
  </g>
</svg>